# xmcd CD database file
# Copyright (C) 1993-1996 Ti Kan
#
# Track frame offsets:
# 150
# 13340
# 22305
# 34787
# 44460
# 55647
# 66592
# 76987
# 89312
# 100372
# 114457
# 128732
# 140127
# 150992
# 161250
# 173030
# 184790
# 196507
#
# Disc length: 2763 seconds
#
# Revision: 0
# Processed by: cddbd v1.4b41PL1 Copyright (c) Steve Scherf et al.
# Submitted via: inCDius 1.1b5
#
DISCID=ed0ac912
DTITLE=George Jones - Mr. Country Music
DYEAR=1900
DGENRE=
TTITLE0=Things Have Gone To Pieces
TTITLE1=The Love Bug
TTITLE2=Take Me
TTITLE3=I'm A People
TTITLE4=Old Brush Arbors
TTITLE5=4033
TTITLE6=Walk Through This World With Me 
TTITLE7=If My Heart Had Windows
TTITLE8=Say It's Not You
TTITLE9=Where Grass Won't Grow
TTITLE10=A Good Year For The Roses
TTITLE11=I'm Wasting Good Paper
TTITLE12=Accidentally On Purpose
TTITLE13=Developing My Pictures
TTITLE14=My Favorite Lies
TTITLE15=From Here To The Door
TTITLE16=White Lightning
TTITLE17=Tender Years
EXTD=
EXTT0=
EXTT1=
EXTT2=
EXTT3=
EXTT4=
EXTT5=
EXTT6=
EXTT7=
EXTT8=
EXTT9=
EXTT10=
EXTT11=
EXTT12=
EXTT13=
EXTT14=
EXTT15=
EXTT16=
EXTT17=
PLAYORDER=
